<?xml version="1.0" encoding="utf-8"?>
<!-- Generator: Adobe Illustrator 18.1.1, SVG Export Plug-In . SVG Version: 6.00 Build 0)  -->
<svg version="1.1" id="Layer_1" xmlns="http://www.w3.org/2000/svg" xmlns:xlink="http://www.w3.org/1999/xlink" x="0px" y="0px"
	 viewBox="-368.3 128.2 258 258" enable-background="new -368.3 128.2 258 258" xml:space="preserve">
<g>
	<path fill="#FFFFFF" d="M-238.4,191.1c-36.3,0-65.6,29.4-65.6,65.6c0,13.9,4.3,26.7,11.7,37.3l-5.8,23.3l22.5-6.5
		c10.6,7.3,23.4,11.6,37.2,11.6c36.3,0,65.7-29.4,65.6-65.6C-172.7,220.5-202.1,191.1-238.4,191.1z M-201.4,285.7
		c-4.5,10.2-21.2,7.8-21.2,7.8c-46.5-8.6-55.8-50.7-55.8-50.7c-4.8-14.9,10.7-22.4,10.7-22.4c2.7-1.3,6.1-0.8,8,1.2
		c1.5,1.5,2.7,5.2,3.7,7.9c0.6,1.4,1.1,2.9,1.7,4.3c0.9,2.2,1.8,4.7,1.6,7.2c-0.1,2.6-2.4,4.3-4,6.1c-0.9,1.1-1.8,2.1-2.8,3.2
		c6.3,17.6,29.8,26.3,29.8,26.3c1.8-1.9,3.7-3.8,5.5-5.7c1.4-1.5,2.9-3.4,4.9-3.9c2.8-0.8,5.6,1,8,2.2c2.8,1.4,5,2.7,7.4,4.1
		c1.9,1.1,3.5,2.6,3.7,4.9C-199.8,280.4-200.4,283.5-201.4,285.7z"/>
	<path fill="#FFFFFF" d="M-239.3,128.2c-71.2,0-129,57.8-129,129s57.8,129,129,129c71.2,0,129-57.8,129-129S-168,128.2-239.3,128.2z
		 M-239.3,335.5c-13.9,0-27-3.6-38.3-9.9l-39.6,11.4l10-40.2c-7-11.8-11.1-25.6-11.1-40.4c0-43.7,35.4-79.1,79.1-79.1
		c43.7,0,79.1,35.4,79.1,79.1C-160.2,300.1-195.6,335.5-239.3,335.5z"/>
</g>
</svg>
